# xmcd CD database file
# Copyright (C) 1993-1998 Ti Kan
#
# Track frame offsets:
#	150
#	19697
#	38605
#	56500
#	73915
#	90000
#	108430
#	125260
#	142260
#	159952
#	177480
#	197557
#	216392
#	232125
#	250157
#	267235
#	285322
#	301225
#	321972
#
# Disc length: 4550 seconds
#
# Revision: 1
# Processed by: cddbd v1.4b41PL1 Copyright (c) Steve Scherf et al.
# Submitted via: CDValet v3.31 - Copyright (c) 1997 Greg Leichner
#
DISCID=0d11c413
DTITLE=Various Artist - Universal Inside Tracks (Vol. 6)
DYEAR=1900
DGENRE=
TTITLE0=In The Middle
TTITLE1=Special Kind Of Love
TTITLE2=Sweet As It Comes
TTITLE3=Wanna make Luv 2 U
TTITLE4=Waiting In Vain
TTITLE5=Can He Love U Like This
TTITLE6=Daydreaming
TTITLE7=Give Him Love He Can Feel
TTITLE8=La La Love
TTITLE9=Get To Know You
TTITLE10=One Last Cry
TTITLE11=Yellowstone
TTITLE12=Loungin'
TTITLE13=Natural
TTITLE14=Deeper
TTITLE15=Bumpin'
TTITLE16=Roll With The Flavor
TTITLE17=Roll Wit Tha Flava 
TTITLE18=Intelligent Hoodlum
EXTD=
EXTT0=
EXTT1=
EXTT2=
EXTT3=
EXTT4=
EXTT5=
EXTT6=
EXTT7=
EXTT8=
EXTT9=
EXTT10=
EXTT11=
EXTT12=
EXTT13=
EXTT14=
EXTT15=
EXTT16=
EXTT17=
EXTT18=
PLAYORDER=
